<svg id="Layer_1" data-name="Layer 1" xmlns="http://www.w3.org/2000/svg" viewBox="0 0 373.75 310.84"><path class="cls-1" d="M75.38,353.54c-4.6-7.73,36.42-54.21,44.09-84.36,8.37-32.89-28.41-94.79,32.28-129.69,69.35-39.88,144.14,21.36,167.13,60,22.76,38.3,48.44,142.2-13.45,179C223.76,427.06,78.61,359,75.38,353.54Z" transform="translate(-75.02 -85.04)"/><path class="cls-1" d="M312.44,280.15s52.58-18.54,70.36-15.6c15.27,2.52,47.81,29,59.1,18.42,16.73-15.67.32-82.28-21.56-89.13-20.89-6.54-77.53,40.68-77.53,40.68s84-71.4,76.28-102.38c-6-24.25-71.18-59.14-90.22-43-20.88,17.74,10.95,82.47,6.18,109.46C331.89,216.5,291.87,257,291.87,257Z" transform="translate(-75.02 -85.04)"/></svg>