<svg id="Layer_1" data-name="Layer 1" xmlns="http://www.w3.org/2000/svg" viewBox="0 0 81.97 138.42"><defs><style>.cls-1{fill:#008aa8;}.cls-2{fill:#e1b137;}.cls-3{fill:#68ad19;}.cls-4{fill:#ecad5f;}.cls-5{fill:#a9eeff;}.cls-6{fill:#bfda39;}.cls-7{fill:#85ce46;}.cls-8{fill:#199319;}.cls-9{fill:#b89432;}.cls-10{fill:#e3bd52;}</style></defs><path class="cls-1" d="M15,123s-.62,3.91,0,5c1.44,2.54,4,5,10,6,2.22.37,9,0,9,0a2.77,2.77,0,0,0,0,4,14.44,14.44,0,0,0,6,3c6.33,1.49,19.5,0,26,0,4,0,7-3,5-6-1.24-1.86-6-3-6-3s6-2.26,7-4c.63-1.08,0-5,0-5Z" transform="translate(-2.38 -3.25)"/><path class="cls-2" d="M36,76s2.26-8.61,2.65-11.55C39,62.11,39,53,39,53l4.5-3.5s4.16,11.1,5.25,14.25C49.78,66.75,52,76,52,76Z" transform="translate(-2.38 -3.25)"/><path class="cls-3" d="M16,105c1.94.49,0,3,5,3,2,0,2-3,5-3s2,5,4,5c3,0,4-4,6-4,3,0,2,4,5,4s3-4,5-4c3,0,3,3,5,3s2-4,4-4c3,0,3,4,5,4s3-5,6-5,4,5,6,5c2.52,0,4.34-3.53,4.85-4.65A33.5,33.5,0,0,0,10,106C10.32,105.71,12.3,104.08,16,105Z" transform="translate(-2.38 -3.25)"/><path class="cls-3" d="M13.8,123c.4.69,59.21.1,59.25,0s0,0,0,0H13.8Z" transform="translate(-2.38 -3.25)"/><path class="cls-4" d="M13.79,123C12,120,10,113.09,10,107.5" transform="translate(-2.38 -3.25)"/><path class="cls-4" d="M77,107.5A29.43,29.43,0,0,1,73.07,123" transform="translate(-2.38 -3.25)"/><path class="cls-4" d="M76.85,104.35c.09,1,.15,2.09.15,3.15" transform="translate(-2.38 -3.25)"/><path class="cls-4" d="M10,107.5c0-.52,0-1,0-1.54" transform="translate(-2.38 -3.25)"/><path class="cls-4" d="M72,109c-2,0-3-5-6-5s-4,5-6,5-2-4-5-4c-2,0-2,4-4,4s-2-3-5-3c-2,0-2,4-5,4s-2-4-5-4c-2,0-3,4-6,4-2,0-1-5-4-5s-3,3-5,3c-5,0-3.06-2.51-5-3-3.7-.92-5.68.71-6,1,0,.51,0,1,0,1.54,0,5.59,2,12.49,3.79,15.5H73.07A29.43,29.43,0,0,0,77,107.5c0-1.06-.06-2.11-.15-3.15C76.34,105.47,74.52,109,72,109Z" transform="translate(-2.38 -3.25)"/><path class="cls-5" d="M8,121c-.28-3.39,6-8,11-8,7,0,5,5,12,5,6,0,5-5,11-5s7.2,5,10,5c6,0,6-5,11-5,7,0,16.87,6.18,17,8,.22,3-8,4.36-11,5-12.46,2.7-38.59,2.93-51,0C15.28,125.36,8.23,123.79,8,121Z" transform="translate(-2.38 -3.25)"/><polygon class="cls-6" points="24.62 88.75 21.62 96.75 33.62 92.75 24.62 88.75"/><polygon class="cls-6" points="38.62 83.75 46.62 78.75 50.62 86.75 38.62 83.75"/><polygon class="cls-7" points="29.62 76.75 29.62 82.75 36.62 78.75 29.62 76.75"/><polygon class="cls-7" points="21.62 85.75 15.62 92.75 13.62 86.75 21.62 85.75"/><polygon class="cls-7" points="53.62 83.75 53.62 93.75 63.62 86.75 53.62 83.75"/><polygon class="cls-7" points="50.62 79.75 55.62 75.75 63.62 79.75 50.62 79.75"/><path class="cls-8" d="M38,31V20.57a12.22,12.22,0,0,1,4.21-9.22l9.2-8a.52.52,0,0,1,.83.58L46,20l.43-.43A12.21,12.21,0,0,1,55.05,16h0a.53.53,0,0,1,.45.8L44,35,59.68,21.67a12.21,12.21,0,0,1,9.91-2.74l3.28.55A12.11,12.11,0,0,1,78.48,22l5.57,4.45a.79.79,0,0,1-.54,1.4L70,27l6.26,6.26a.79.79,0,0,1-.69,1.34L60,32l3.92,4.71a.78.78,0,0,1-.6,1.29H49l12.86,2.57a9.64,9.64,0,0,1,3.89,1.74l10.4,7.8A9.64,9.64,0,0,1,80,57.81h0a1.07,1.07,0,0,1-1.73.84L71,53l-.67,4.71a1.07,1.07,0,0,1-1.86.56L62,51l-.63,3.81a1.08,1.08,0,0,1-1.86.54l-3.63-4a12.2,12.2,0,0,0-9.68-4l-6.59.33A12.21,12.21,0,0,0,29,55h0c-1,0-3-5-3-5L21.52,60.74a.41.41,0,0,1-.79-.08L19,52l-5.41,9.92a.42.42,0,0,1-.78-.14l-.87-5.67a12.2,12.2,0,0,1,3.43-10.48l3.44-3.44a12.24,12.24,0,0,1,7.69-3.54L35,38l-6-1-8.1-.81a.9.9,0,0,1-.55-1.54L24,31l-10.79.77a.91.91,0,0,1-.59-1.64L17,27,3.17,25.27a.9.9,0,0,1-.44-1.61l4-3.09A12.15,12.15,0,0,1,14.19,18h1.86a12.22,12.22,0,0,1,7.15,2.31Z" transform="translate(-2.38 -3.25)"/><polygon class="cls-3" points="30.62 73.75 33.62 67.75 36.62 70.75 40.62 64.75 45.62 70.75 48.62 65.75 52.62 72.75 30.62 73.75"/><circle class="cls-9" cx="44.92" cy="45.26" r="3.55"/><circle class="cls-9" cx="35.87" cy="47.21" r="4.54"/><path class="cls-10" d="M45,44a24.54,24.54,0,0,0-7-1c-3,0-5.38,1.52-6,3-.48,1.15-2.94,5.17-2,6s4,.72,5,0c1.19-.84,3.55-3.83,5-4,1.24-.15,2,3.19,3,4,.78.67,3.1,1.51,4,1,1.11-.63,2.56-3.41,2.16-4.61A7.45,7.45,0,0,0,45,44Z" transform="translate(-2.38 -3.25)"/></svg>